<?xml version="1.0" encoding="UTF-8"?>
<svg version="1.1" xmlns="http://www.w3.org/2000/svg" width="480" height="480">
<path d="M0 0 C3.70770389 0.00477293 7.41535796 -0.00781429 11.12304533 -0.01801741 C18.36815213 -0.03513108 25.61317193 -0.03606091 32.85829369 -0.03080451 C38.75309904 -0.02674742 44.64787886 -0.02822454 50.54268301 -0.03355277 C51.80572977 -0.0346754 51.80572977 -0.0346754 53.09429264 -0.03582071 C54.80540847 -0.03735234 56.51652429 -0.03889069 58.22764011 -0.04043568 C74.24042801 -0.05413399 90.25316693 -0.04874199 106.26595368 -0.03725047 C120.88017147 -0.0273223 135.49426257 -0.04025631 150.10846082 -0.06418466 C165.15402086 -0.0886316 180.19952203 -0.09816973 195.24510151 -0.09153193 C203.67614156 -0.08805193 212.10708427 -0.09019064 220.53810918 -0.10778296 C227.71558007 -0.12257522 234.89288508 -0.12304948 242.07035295 -0.10571205 C245.72434677 -0.09725673 249.37804518 -0.09491639 253.03202283 -0.1103636 C271.20806162 -0.18176514 288.61961892 0.22011015 305.52772367 7.65683305 C306.22349515 7.95492876 306.91926664 8.25302446 307.63612211 8.56015337 C314.1620666 11.4575644 319.97629924 15.07099469 325.65272367 19.40683305 C326.17817777 19.80354204 326.70363187 20.20025102 327.24500883 20.60898149 C347.62075697 36.19150262 361.88735306 59.60178016 365.43991077 85.18132055 C365.90328994 90.02715523 365.7967984 94.90114304 365.79316556 99.76462114 C365.79762225 101.6320679 365.79762225 101.6320679 365.80216897 103.53724086 C365.80932799 106.98136312 365.81202663 110.42543547 365.81276643 113.86956155 C365.814623 117.58892054 365.82217342 121.30826885 365.82890165 125.02762163 C365.84246197 133.15605273 365.84850631 141.28447888 365.85291231 149.4129194 C365.85567905 154.49347733 365.85991723 159.57403336 365.86441648 164.65459001 C365.87660694 178.73536119 365.88690618 192.81613087 365.89029157 206.89690721 C365.89051114 207.79747698 365.8907307 208.69804674 365.89095692 209.6259065 C365.8911752 210.52857199 365.89139348 211.43123749 365.89161837 212.36125648 C365.89206183 214.19025076 365.89250839 216.01924503 365.89295805 217.8482393 C365.89317947 218.75547426 365.8934009 219.66270921 365.89362904 220.59743613 C365.89757384 235.28529523 365.91501913 249.97310461 365.93831757 264.66094452 C365.96207285 279.75933622 365.97449535 294.85770302 365.97565949 309.9561137 C365.97657399 318.42573223 365.98226927 326.89528602 366.0004791 335.36488664 C366.01593667 342.5795685 366.02096743 349.7941656 366.012741 357.00886089 C366.0088542 360.68466538 366.00966665 364.36029948 366.02379835 368.03608263 C366.0933055 387.24811951 365.48652091 403.59666156 357.65272367 421.40683305 C356.98950101 422.91890337 356.98950101 422.91890337 356.31287992 424.46152055 C352.68488721 432.19989836 347.99798978 438.7631601 342.65272367 445.40683305 C342.11131742 446.11452837 341.56991117 446.82222368 341.01209867 447.5513643 C329.33497858 462.0298137 311.33678956 472.35223852 293.65272367 477.40683305 C292.32239087 477.79035731 292.32239087 477.79035731 290.96518266 478.18162954 C277.9163385 481.33093676 264.65010793 480.84266215 251.30544734 480.81366611 C247.59774345 480.80889317 243.89008938 480.82148039 240.18240201 480.83168352 C232.93729521 480.84879718 225.69227541 480.84972701 218.44715365 480.84447061 C212.5523483 480.84041352 206.65756848 480.84189065 200.76276433 480.84721887 C199.92073316 480.84796729 199.07870198 480.84871572 198.2111547 480.84948682 C196.50003887 480.85101845 194.78892305 480.85255679 193.07780723 480.85410178 C177.06501933 480.8678001 161.05228041 480.8624081 145.03949366 480.85091657 C130.42527587 480.8409884 115.81118477 480.85392242 101.19698652 480.87785076 C86.15142648 480.9022977 71.10592531 480.91183584 56.06034583 480.90519804 C47.62930578 480.90171804 39.19836307 480.90385675 30.76733816 480.92144907 C23.58986727 480.93624132 16.41256226 480.93671558 9.23509439 480.91937815 C5.58110057 480.91092284 1.92740216 480.90858249 -1.72657549 480.92402971 C-19.90261428 480.99543125 -37.31417158 480.59355595 -54.22227633 473.15683305 C-54.91804781 472.85873735 -55.6138193 472.56064165 -56.33067477 472.25351274 C-62.85661926 469.3561017 -68.6708519 465.74267141 -74.34727633 461.40683305 C-74.87273043 461.01012407 -75.39818453 460.61341508 -75.93956149 460.20468462 C-96.31530963 444.62216349 -110.58190572 421.21188595 -114.13446343 395.63234556 C-114.5978426 390.78651088 -114.49135106 385.91252306 -114.48771822 381.04904497 C-114.49068935 379.80408046 -114.49366047 378.55911595 -114.49672163 377.27642524 C-114.50388065 373.83230299 -114.50657929 370.38823064 -114.50731909 366.94410455 C-114.50917566 363.22474556 -114.51672608 359.50539725 -114.52345431 355.78604448 C-114.53701463 347.65761338 -114.54305897 339.52918723 -114.54746497 331.4007467 C-114.55023171 326.32018878 -114.55446989 321.23963274 -114.55896914 316.15907609 C-114.5711596 302.07830491 -114.58145884 287.99753524 -114.58484423 273.91675889 C-114.5850638 273.01618913 -114.58528336 272.11561937 -114.58550958 271.18775961 C-114.58572786 270.28509411 -114.58594614 269.38242862 -114.58617103 268.45240963 C-114.58661449 266.62341535 -114.58706105 264.79442108 -114.5875107 262.9654268 C-114.58773213 262.05819185 -114.58795356 261.1509569 -114.5881817 260.21622998 C-114.5921265 245.52837088 -114.60957179 230.84056149 -114.63287023 216.15272158 C-114.65662551 201.05432989 -114.66904801 185.95596309 -114.67021215 170.85755241 C-114.67112665 162.38793387 -114.67682193 153.91838009 -114.69503176 145.44877946 C-114.71048933 138.2340976 -114.71552009 131.01950051 -114.70729366 123.80480522 C-114.70340686 120.12900072 -114.70421931 116.45336663 -114.71835101 112.77758348 C-114.78785816 93.56554659 -114.18107357 77.21700455 -106.34727633 59.40683305 C-105.90512789 58.39878618 -105.46297945 57.3907393 -105.00743258 56.35214555 C-101.37943987 48.61376774 -96.69254244 42.050506 -91.34727633 35.40683305 C-90.80587008 34.69913774 -90.26446383 33.99144243 -89.70665133 33.2623018 C-78.02953124 18.7838524 -60.03134222 8.46142759 -42.34727633 3.40683305 C-41.4603878 3.15115021 -40.57349926 2.89546737 -39.65973532 2.63203657 C-26.61089116 -0.51727066 -13.34466059 -0.02899604 0 0 Z " fill="#000000" transform="translate(114.3472763299942,-0.40683305263519287)"/>
<path d="M0 0 C1.3921875 1.2065625 1.3921875 1.2065625 2.8125 2.4375 C5.84545492 5.04584123 8.9416534 7.56028276 12.0625 10.0625 C17.26546817 14.29530145 22.17894896 18.78875251 27.05297852 23.39477539 C29.75621685 25.94450519 32.47251722 28.41941601 35.35546875 30.765625 C38 33 38 33 39 35 C39.0909215 36.8179454 39.11753467 38.63925945 39.11352539 40.45947266 C39.11344986 41.60050446 39.11337433 42.74153625 39.11329651 43.91714478 C39.10813522 45.15362762 39.10297394 46.39011047 39.09765625 47.6640625 C39.09553383 49.5575795 39.09553383 49.5575795 39.09336853 51.48934937 C39.08871078 54.84638299 39.07972408 58.203349 39.06866455 61.56036377 C39.0584377 64.98554906 39.05386818 68.41074134 39.04882812 71.8359375 C39.03778238 78.55731043 39.02103194 85.27865131 39 92 C40.47486118 90.91607041 41.94129516 89.82066766 43.40405273 88.72045898 C44.63030617 87.80731178 44.63030617 87.80731178 45.8813324 86.87571716 C48.85124253 84.24637058 49.46447315 81.9297403 50.0625 78.0625 C50.25972656 76.91910156 50.45695313 75.77570313 50.66015625 74.59765625 C50.77230469 73.74042969 50.88445312 72.88320312 51 72 C51.66 72 52.32 72 53 72 C53.33 71.01 53.66 70.02 54 69 C55.390625 67.74609375 55.390625 67.74609375 57.25 66.4375 C59.97459307 64.51022949 62.57978054 62.52965065 65.10546875 60.3515625 C73.5389703 53.21533082 73.5389703 53.21533082 77.8359375 52.58203125 C80.3125 52.875 80.3125 52.875 84 54 C84.04567951 56.6240342 84.05540256 59.23889224 84.01171875 61.86328125 C83.94803507 64.94728144 83.94803507 64.94728144 84.26953125 67.79296875 C84.4159279 71.55048266 84.33545318 74.49172956 81.73974609 77.42333984 C78.33340773 80.52703367 74.5871498 83.14697997 70.79199219 85.74951172 C68.32824603 87.46876346 66.01147999 89.34756212 63.6875 91.25 C59.92445094 94.27026124 56.12830348 97.24321674 52.30859375 100.19140625 C48.84816731 102.90236639 45.4576519 105.69924484 42.06640625 108.49609375 C40 110 40 110 38 110 C38 110.66 38 111.32 38 112 C36.49609375 113.33203125 36.49609375 113.33203125 34.4375 114.8125 C33.71433594 115.33714844 32.99117187 115.86179687 32.24609375 116.40234375 C31.50488281 116.92957031 30.76367188 117.45679688 30 118 C29.31035156 118.49628906 28.62070312 118.99257812 27.91015625 119.50390625 C26.27790604 120.67552143 24.63956415 121.83864206 23 123 C24.33584722 127.00754167 26.76893828 128.37476236 30 131 C30.33 131.66 30.66 132.32 31 133 C35.39420986 132.12151441 38.21926127 129.71290501 41.625 126.9375 C42.24455566 126.44161377 42.86411133 125.94572754 43.50244141 125.43481445 C45.33988121 123.96253433 47.1704363 122.48204881 49 121 C50.79083323 119.56146184 52.5823858 118.12381821 54.375 116.6875 C55.56029297 115.73617187 55.56029297 115.73617187 56.76953125 114.765625 C59.46757333 112.6298719 62.21447494 110.56746147 64.9765625 108.515625 C71.2210926 104.03168272 71.2210926 104.03168272 77 99 C86.62450024 96.61518604 99.13284788 94.87366813 108.081604 100.25079346 C119.34257377 108.51840395 128.54622904 119.90407355 137.20874023 130.77075195 C140.15617098 134.4388711 143.42017737 137.5266754 147.0625 140.5 C149.81245111 142.84038392 151.7982897 145.15908348 154 148 C154.9075 148.845625 155.815 149.69125 156.75 150.5625 C159 153 159 153 159 157 C157.03933716 159.44841003 157.03933716 159.44841003 154.25830078 162.21166992 C153.7543277 162.7178334 153.25035461 163.22399689 152.73110962 163.74549866 C151.06197172 165.41694899 149.37898536 167.07367079 147.6953125 168.73046875 C146.5334516 169.88740689 145.37240029 171.04515858 144.21212769 172.20368958 C141.77840903 174.62976489 139.33837307 177.04922875 136.89306641 179.46362305 C133.75482969 182.56226281 130.62747966 185.67159782 127.50413704 188.78524303 C124.52971712 191.74969927 121.55035406 194.70916536 118.5703125 197.66796875 C117.99985325 198.23503225 117.429394 198.80209576 116.8416481 199.386343 C115.23062229 200.98581785 113.61617464 202.58174842 112.00048828 204.17651367 C111.08115509 205.08600266 110.1618219 205.99549164 109.21463013 206.93254089 C103.05230819 212.68535192 91.84317039 210.80543655 83.9140625 210.6640625 C76.21132513 210.21672771 72.73414849 208.54713725 67.484375 202.81640625 C66.66453125 201.88699219 65.8446875 200.95757812 65 200 C62.8251009 198.22487929 60.5475826 196.61172206 58.25 195 C56.4628365 193.71690826 54.69899069 192.3977512 53 191 C53 190.34 53 189.68 53 189 C52.34 188.814375 51.68 188.62875 51 188.4375 C47.42876843 186.72628487 44.98417622 184.4682723 42.0703125 181.8203125 C39.20013182 179.29671968 36.14753086 177.16392746 33 175 C29.08060535 178.80411834 25.50897269 182.81576108 22 187 C22.54011719 187.23976563 23.08023438 187.47953125 23.63671875 187.7265625 C26.61748343 189.33272661 29.13841996 191.29628118 31.8125 193.375 C32.37074463 193.8076416 32.92898926 194.2402832 33.50415039 194.68603516 C38.65178044 198.69077342 43.73829898 202.77315668 48.7980957 206.88818359 C51.60454882 209.15583136 54.39280343 211.2929538 57.44140625 213.2265625 C58.28574219 213.81179688 59.13007813 214.39703125 60 215 C60 215.66 60 216.32 60 217 C60.54140625 217.08378906 61.0828125 217.16757812 61.640625 217.25390625 C64.81747823 218.25850719 67.06603503 219.97422933 69.75 221.9375 C70.73484375 222.64777344 71.7196875 223.35804688 72.734375 224.08984375 C73.48203125 224.72019531 74.2296875 225.35054687 75 226 C75 226.66 75 227.32 75 228 C75.5775 228.268125 76.155 228.53625 76.75 228.8125 C79.10608542 230.05598953 81.01202679 231.21978629 83 233 C83.609375 235.09375 83.609375 235.09375 83.75 237.5 C83.8015625 238.3765625 83.853125 239.253125 83.90625 240.15625 C83.95265625 241.56390625 83.95265625 241.56390625 84 243 C84.0515625 244.0003125 84.103125 245.000625 84.15625 246.03125 C84.33529048 251.70086527 84.33529048 251.70086527 84 254 C80.43520155 256.3765323 79.20423715 256.565955 75 256 C72.42821701 254.61082405 70.09494743 253.04536288 68 251 C68 250.34 68 249.68 68 249 C67.34 248.814375 66.68 248.62875 66 248.4375 C62.32802321 246.67801112 59.75048968 244.30016355 56.76953125 241.55859375 C55.07185494 239.92943284 55.07185494 239.92943284 53 239 C53 238.34 53 237.68 53 237 C52.34 237 51.68 237 51 237 C50.90203125 236.15695312 50.8040625 235.31390625 50.703125 234.4453125 C50.47882813 232.80175781 50.47882813 232.80175781 50.25 231.125 C50.04117188 229.48917969 50.04117188 229.48917969 49.828125 227.8203125 C49.29064565 224.87221871 49.29064565 224.87221871 46.921875 223.6171875 C46.28765625 223.41351563 45.6534375 223.20984375 45 223 C45 222.34 45 221.68 45 221 C44.38125 220.690625 43.7625 220.38125 43.125 220.0625 C41.75 219.375 40.375 218.6875 39 218 C39.01110306 218.70299728 39.02220612 219.40599457 39.03364563 220.1302948 C39.13396175 226.76559493 39.21002204 233.40068251 39.25906086 240.03657055 C39.2851206 243.44796874 39.3204489 246.85873874 39.37719727 250.26977539 C39.44207403 254.19409584 39.4662107 258.11816474 39.48828125 262.04296875 C39.51408768 263.26396774 39.5398941 264.48496674 39.56648254 265.7429657 C39.56929356 274.23438342 39.56929356 274.23438342 36.74658203 278.03051758 C35.84020996 278.68044678 34.93383789 279.33037598 34 280 C32.52156624 281.48901842 31.04370201 282.97860253 29.56640625 284.46875 C27.89850245 286.14589793 26.2305319 287.82297948 24.5625 289.5 C23.72912109 290.34175781 22.89574219 291.18351562 22.03710938 292.05078125 C17.83979984 296.26468095 13.63109662 300.2697854 9 304 C7.31384218 305.64694485 5.64429829 307.31126121 4 309 C3 310 2 311 1 312 C-2.76878586 310.44200307 -5.11271145 308.090634 -7.9375 305.1875 C-8.77152344 304.33542969 -9.60554687 303.48335938 -10.46484375 302.60546875 C-11.71974609 301.31576172 -11.71974609 301.31576172 -13 300 C-16.48317228 296.46145137 -20.06819613 293.08115589 -23.75 289.75 C-24.26788086 289.26313721 -24.78576172 288.77627441 -25.31933594 288.2746582 C-27.73529617 286.00700076 -30.055868 283.96100226 -32.78125 282.05859375 C-36.11235639 279.53391027 -38.54488033 277.28586421 -39.38964844 273.04296875 C-39.86896206 267.59643978 -39.51123945 262.1667813 -39.19238281 256.71923828 C-38.96549554 252.33294288 -38.84653823 247.94924107 -38.7421875 243.55859375 C-38.70234649 241.90470293 -38.66247007 240.25081295 -38.62255859 238.59692383 C-38.59292023 237.36566269 -38.59292023 237.36566269 -38.56268311 236.10952759 C-38.46168816 232.10645957 -38.34123233 228.10402264 -38.21875 224.1015625 C-38.19682587 223.38387192 -38.17490173 222.66618134 -38.15231323 221.92674255 C-38.10189486 220.28448417 -38.0510063 218.64224023 -38 217 C-38.54269531 217.40992188 -39.08539063 217.81984375 -39.64453125 218.2421875 C-40.35996094 218.78101563 -41.07539063 219.31984375 -41.8125 219.875 C-42.52019531 220.40867187 -43.22789062 220.94234375 -43.95703125 221.4921875 C-45.60456297 222.70814781 -47.29624211 223.86416141 -49 225 C-49.69064754 227.87815429 -49.69064754 227.87815429 -50.125 231.1875 C-51.18729429 236.32854989 -52.23025964 238.9230904 -56.4375 242.125 C-57.94252313 243.10797619 -59.46306116 244.06771474 -61 245 C-62.06927734 245.83144531 -62.06927734 245.83144531 -63.16015625 246.6796875 C-65 248 -65 248 -67 248 C-67 248.66 -67 249.32 -67 250 C-69.86758933 253.01249411 -73.0301657 255.82430294 -77.27734375 256.203125 C-82.43054124 255.56945876 -82.43054124 255.56945876 -84 254 C-84.09761338 250.97398536 -84.0925127 248.02208137 -84 245 C-83.97486328 243.58074219 -83.97486328 243.58074219 -83.94921875 242.1328125 C-83.60247926 234.82156262 -83.60247926 234.82156262 -80.9375 231.1875 C-79.968125 230.465625 -78.99875 229.74375 -78 229 C-77.443125 228.56816406 -76.88625 228.13632812 -76.3125 227.69140625 C-74.23278355 226.09262423 -72.11784114 224.54792376 -70 223 C-59.87165505 215.45452812 -49.77011638 207.86652185 -39.9375 199.9375 C-34.40100402 195.47729154 -28.70818125 191.23700051 -23 187 C-23.55876839 183.46368497 -24.65972661 182.08104872 -27.4375 179.875 C-29.39564974 178.29703382 -31.21849868 176.78150132 -33 175 C-40.76591716 180.89092689 -48.40449283 186.91464058 -55.95141602 193.08374023 C-61.16706234 197.34121748 -66.43888599 201.52141135 -71.74780273 205.66186523 C-74.46517149 207.72513285 -74.46517149 207.72513285 -77 210 C-81.51137075 210.39630107 -86.03620029 210.41864863 -90.5625 210.5 C-91.82642578 210.55414063 -93.09035156 210.60828125 -94.39257812 210.6640625 C-104.93059447 210.81830424 -104.93059447 210.81830424 -109.37890625 206.9921875 C-110.61362969 205.6871118 -111.82024327 204.35496812 -113 203 C-114.39729689 201.61077236 -115.80111748 200.22807968 -117.2109375 198.8515625 C-118.60156472 197.44528094 -119.98958053 196.03641233 -121.375 194.625 C-122.77632747 193.19824009 -124.1798635 191.77364493 -125.5859375 190.3515625 C-126.1948584 189.73104004 -126.8037793 189.11051758 -127.43115234 188.47119141 C-128.95123461 186.90538038 -128.95123461 186.90538038 -131 186 C-131 185.34 -131 184.68 -131 184 C-131.66 184 -132.32 184 -133 184 C-133 183.34 -133 182.68 -133 182 C-133.66 182 -134.32 182 -135 182 C-136.71230248 180.38025441 -138.37163262 178.7041054 -140 177 C-140.7321875 176.27425781 -141.464375 175.54851562 -142.21875 174.80078125 C-145.60908797 171.38663473 -148.90240666 167.89008421 -152.1875 164.375 C-152.81591797 163.70726562 -153.44433594 163.03953125 -154.09179688 162.3515625 C-154.69443359 161.70703125 -155.29707031 161.0625 -155.91796875 160.3984375 C-156.46219482 159.81755371 -157.0064209 159.23666992 -157.56713867 158.63818359 C-159 157 -159 157 -161 154 C-154.42004374 146.74168516 -147.75890522 139.56862686 -140.98922443 132.48667145 C-137.84605154 129.19342754 -134.73487161 125.87971808 -131.6862793 122.49853516 C-109.3041051 97.74151311 -109.3041051 97.74151311 -93.9160614 96.88269043 C-78.5647757 97.22379382 -78.5647757 97.22379382 -73.34008789 101.50292969 C-72.18174438 102.73897949 -72.18174438 102.73897949 -71 104 C-69.42379729 105.25897953 -67.841167 106.50998709 -66.25 107.75 C-65.49203125 108.34296875 -64.7340625 108.9359375 -63.953125 109.546875 C-62.06389658 111.04100803 -62.06389658 111.04100803 -60 112 C-60 112.66 -60 113.32 -60 114 C-59.45859375 114.2475 -58.9171875 114.495 -58.359375 114.75 C-55.4717151 116.27988604 -52.90223982 118.09150997 -50.25 120 C-49.26515625 120.70125 -48.2803125 121.4025 -47.265625 122.125 C-46.51796875 122.74375 -45.7703125 123.3625 -45 124 C-45 124.66 -45 125.32 -45 126 C-44.278125 126.226875 -43.55625 126.45375 -42.8125 126.6875 C-40 128 -40 128 -37.4375 130.6875 C-36.633125 131.450625 -35.82875 132.21375 -35 133 C-31.15384291 132.79296049 -29.30798895 130.62338839 -26.75 127.9375 C-26.04359375 127.20402344 -25.3371875 126.47054687 -24.609375 125.71484375 C-23.81273437 124.86599609 -23.81273437 124.86599609 -23 124 C-26.08768435 120.75644697 -29.43783376 118.00848115 -33 115.3125 C-33.84244263 114.66764648 -33.84244263 114.66764648 -34.7019043 114.00976562 C-37.61952316 111.78231425 -40.55640459 109.58451137 -43.51953125 107.41796875 C-44.07318359 107.0108667 -44.62683594 106.60376465 -45.19726562 106.18432617 C-46.73798784 105.05463399 -48.28486231 103.93334684 -49.83203125 102.8125 C-50.54746094 102.214375 -51.26289063 101.61625 -52 101 C-52 100.34 -52 99.68 -52 99 C-52.99 98.7215625 -52.99 98.7215625 -54 98.4375 C-57.42907415 96.79440197 -59.68522685 94.74716926 -62.48046875 92.203125 C-66.21485143 88.93771131 -70.14438551 85.93161872 -74.07592773 82.90844727 C-82.74465684 76.19160143 -82.74465684 76.19160143 -83.75 71.5 C-84.19658885 66.01630441 -84.08245173 60.4967819 -84 55 C-80.86609575 53.14287155 -78.63481277 52.475217 -75 53 C-72.4921875 54.65234375 -72.4921875 54.65234375 -69.875 56.9375 C-68.44994141 58.15953125 -68.44994141 58.15953125 -66.99609375 59.40625 C-66.00738281 60.2621875 -65.01867187 61.118125 -64 62 C-61.98389686 63.65162431 -59.96325579 65.29772922 -57.9375 66.9375 C-55.52599486 68.89922656 -53.19759776 70.80240224 -51 73 C-50.81857057 74.87189095 -50.67892497 76.74794444 -50.5625 78.625 C-49.97895737 82.71236909 -49.51095258 84.52624395 -46.44116211 87.37255859 C-45.43835205 88.04109863 -44.43554199 88.70963867 -43.40234375 89.3984375 C-42.39550537 90.08341309 -41.38866699 90.76838867 -40.35131836 91.47412109 C-39.5753833 91.97766113 -38.79944824 92.48120117 -38 93 C-38.03029297 91.9891333 -38.06058594 90.9782666 -38.09179688 89.93676758 C-38.35739719 80.98152541 -38.59763503 72.02612258 -38.81018066 63.06945801 C-38.92479765 58.41380319 -39.09005802 53.76531306 -39.3125 49.11328125 C-39.37568434 47.28387767 -39.4382579 45.45445282 -39.5 43.625 C-39.55478516 42.82682861 -39.60957031 42.02865723 -39.66601562 41.20629883 C-39.74815803 37.7331202 -39.56444653 35.77177208 -37.4765625 32.91699219 C-35.72868623 31.10112281 -34.04678375 29.47076032 -32 28 C-31.34 28 -30.68 28 -30 28 C-29.65195312 27.13181641 -29.65195312 27.13181641 -29.296875 26.24609375 C-27.67741062 23.44129851 -25.81516335 22.0394972 -23.25 20.0625 C-17.80497537 15.74105188 -12.72901412 11.12259447 -7.68457031 6.34204102 C-7.11834961 5.80764404 -6.55212891 5.27324707 -5.96875 4.72265625 C-5.21754883 4.00734741 -5.21754883 4.00734741 -4.45117188 3.27758789 C-3 2 -3 2 0 0 Z " fill="#FEFEFE" transform="translate(240,83)"/>
<path d="M0 0 C2.55859375 1.9296875 2.55859375 1.9296875 4 4 C4 4.66 4 5.32 4 6 C4.89900024 6.39251953 4.89900024 6.39251953 5.81616211 6.79296875 C8.1484961 8.08207543 9.27639898 9.25240158 10.94140625 11.3125 C16.23536187 17.5662943 22.1266218 23.23262746 27.9375 29 C29.11026009 30.16773374 30.28278798 31.33570074 31.45507812 32.50390625 C34.30071689 35.33863234 37.14947453 38.17018824 40 41 C38.40508634 45.78474097 34.77881415 48.36423335 30.9375 51.5 C28.18754889 53.84038392 26.2017103 56.15908348 24 59 C23.30003906 59.68449219 22.60007812 60.36898437 21.87890625 61.07421875 C19.51423773 63.39370252 17.42419663 65.87489225 15.3125 68.42578125 C3.49843617 82.11118837 3.49843617 82.11118837 -4.640625 83.31640625 C-12.65618536 83.69438138 -19.7221686 83.3546209 -26 78 C-26 77.34 -26 76.68 -26 76 C-26.99 75.7215625 -26.99 75.7215625 -28 75.4375 C-30.79643494 74.09754159 -32.37116029 72.89381362 -34.62890625 70.8359375 C-39.61259059 66.39807439 -44.91458038 62.44261329 -50.25976562 58.45507812 C-50.98744141 57.90658203 -51.71511719 57.35808594 -52.46484375 56.79296875 C-53.120896 56.3033667 -53.77694824 55.81376465 -54.45288086 55.30932617 C-56 54 -56 54 -57 52 C-55.75500732 52.00636475 -54.51001465 52.01272949 -53.22729492 52.01928711 C-48.56193876 52.03383104 -43.89779734 52.00216507 -39.23266602 51.95727539 C-37.22229163 51.94421996 -35.21179698 51.94332343 -33.20141602 51.95532227 C-21.0714195 52.01857777 -12.58600421 52.04964426 -3 44 C-1.68726294 43.29364057 -0.35946624 42.6116157 1 42 C-6.03919851 34.66598186 -12.56116465 30.71031672 -22.74475098 30.33779907 C-27.58472133 30.30125585 -32.4126379 30.41513086 -37.25 30.5625 C-39.26687262 30.59767613 -41.28380465 30.62960396 -43.30078125 30.65820312 C-48.20200863 30.73469 -53.10033679 30.85512433 -58 31 C-54.81083446 27.74657995 -51.44419106 24.92823881 -47.8125 22.1875 C-46.64177749 21.29576927 -45.47120492 20.40384168 -44.30078125 19.51171875 C-43.73311035 19.08036621 -43.16543945 18.64901367 -42.58056641 18.20458984 C-40.54216543 16.65107264 -38.51979269 15.07761173 -36.5 13.5 C-35.78585937 12.96246094 -35.07171875 12.42492187 -34.3359375 11.87109375 C-31.86130747 9.94490525 -31.86130747 9.94490525 -29.2265625 7.34765625 C-20.82329834 -0.39194333 -11.3543719 -2.88596359 0 0 Z " fill="#000000" transform="translate(341,196)"/>
<path d="M0 0 C8.01271245 1.13352896 13.24141385 6.91693625 18.89648438 12.25927734 C22.54478169 15.52716175 26.62398795 18.19200349 30.67675781 20.92724609 C32.09659366 21.9064576 33.47347406 22.94746835 34.83984375 24 C34.83984375 24.66 34.83984375 25.32 34.83984375 26 C35.43796875 26.268125 36.03609375 26.53625 36.65234375 26.8125 C38.82301258 27.99086308 40.14801587 29.23060981 41.83984375 31 C40.03966797 31.00616333 40.03966797 31.00616333 38.203125 31.01245117 C33.7223906 31.03433153 29.24252326 31.08871296 24.76220703 31.15258789 C22.82837272 31.17569051 20.89441396 31.19014534 18.96044922 31.19555664 C16.16946558 31.20490306 13.38041834 31.24601618 10.58984375 31.29296875 C9.73430908 31.2890361 8.87877441 31.28510345 7.99731445 31.28105164 C1.65950526 31.43282819 -2.09483272 33.30210719 -7.16015625 37 C-8.81769067 37.95355318 -10.48240697 38.89498086 -12.16015625 39.8125 C-12.92328125 40.23144531 -13.68640625 40.65039062 -14.47265625 41.08203125 C-15.02953125 41.38496094 -15.58640625 41.68789062 -16.16015625 42 C-13.36073649 44.12985467 -10.51525926 46.16018444 -7.59765625 48.125 C-6.83324219 48.64320313 -6.06882813 49.16140625 -5.28125 49.6953125 C-2.11394047 51.64352867 0.48715974 52.13059006 4.12768555 52.20532227 C4.98835129 52.22526749 5.84901703 52.24521271 6.73576355 52.26576233 C7.6608522 52.28247482 8.58594086 52.29918732 9.5390625 52.31640625 C10.96434013 52.3475779 10.96434013 52.3475779 12.41841125 52.37937927 C15.45464831 52.44478052 18.49097206 52.50371604 21.52734375 52.5625 C23.58529544 52.60569417 25.64323834 52.64930876 27.70117188 52.69335938 C32.74730691 52.80045231 37.79352918 52.90174646 42.83984375 53 C40.11904354 55.76442142 37.42753901 58.45664962 34.38671875 60.8671875 C33.77143311 61.35735352 33.15614746 61.84751953 32.5222168 62.35253906 C31.56569214 63.10615723 31.56569214 63.10615723 30.58984375 63.875 C29.92960205 64.39803711 29.26936035 64.92107422 28.58911133 65.45996094 C27.27683147 66.4984812 25.96346566 67.53563098 24.64892578 68.57128906 C23.06972161 69.81845543 21.49896461 71.07630299 19.9296875 72.3359375 C19.13691406 72.96757812 18.34414062 73.59921875 17.52734375 74.25 C16.85058594 74.79140625 16.17382812 75.3328125 15.4765625 75.890625 C13.83984375 77 13.83984375 77 11.83984375 77 C11.83984375 77.66 11.83984375 78.32 11.83984375 79 C5.69000919 84.06224324 -0.97337287 85.45659214 -8.86328125 84.96875 C-24.84396526 81.7417823 -38.70527023 60.42422464 -48.69970703 48.53320312 C-50.37201512 46.77758714 -52.18871812 45.4050669 -54.16015625 44 C-52.56565905 40.041568 -49.95118499 37.62466847 -46.91015625 34.6875 C-43.65075577 31.51427919 -40.49036586 28.32969034 -37.59765625 24.8125 C-36.79328125 23.884375 -35.98890625 22.95625 -35.16015625 22 C-34.50015625 22 -33.84015625 22 -33.16015625 22 C-32.96035156 21.46246094 -32.76054688 20.92492187 -32.5546875 20.37109375 C-30.55317438 16.9679608 -27.78031174 14.66966653 -24.84765625 12.0625 C-23.70482094 11.03355994 -22.56288192 10.00362346 -21.421875 8.97265625 C-20.58281616 8.22822266 -20.58281616 8.22822266 -19.72680664 7.46875 C-17.94351437 5.85116772 -17.94351437 5.85116772 -15.76171875 3.19140625 C-11.15345629 -0.69032834 -5.74907296 -0.31990254 0 0 Z " fill="#000000" transform="translate(153.16015625,195)"/>
<path d="M0 0 C3.63263078 1.27126392 6.0514441 2.66425262 8.8125 5.3359375 C9.83730469 6.31433594 9.83730469 6.31433594 10.8828125 7.3125 C11.58148438 7.993125 12.28015625 8.67375 13 9.375 C14.39424507 10.71779691 15.79004072 12.05898597 17.1875 13.3984375 C17.79980469 13.99317871 18.41210938 14.58791992 19.04296875 15.20068359 C21.01308881 17.10293707 21.01308881 17.10293707 23.57592773 18.73155212 C26 21 26 21 26.67529297 23.81217957 C26.69736816 24.89533951 26.71944336 25.97849945 26.7421875 27.09448242 C26.77731445 28.32643845 26.81244141 29.55839447 26.84863281 30.8276825 C26.85960002 32.17026189 26.86833278 33.51286112 26.875 34.85546875 C26.89362343 36.24067466 26.91283847 37.62587273 26.93261719 39.01106262 C26.96704997 41.91551424 26.98032685 44.81923184 26.98144531 47.72387695 C26.98651139 51.42677354 27.06495461 55.1240682 27.1625061 58.82552624 C27.22599181 61.68870987 27.23892382 64.55057113 27.23834229 67.41439247 C27.24974872 69.43593404 27.31156944 71.45699119 27.37451172 73.47758484 C27.30709136 78.97298755 27.15599549 82.56043783 23.64257812 86.93569946 C20.82617926 89.38997048 18.37330525 91.38985417 15 93 C12.14160156 92.72062683 12.14160156 92.72062683 10 92 C10.00112793 91.00258789 10.00225586 90.00517578 10.00341797 88.97753906 C9.99970205 85.21965933 9.95650538 81.46302915 9.90234375 77.70556641 C9.88435474 76.09008932 9.8765837 74.47446059 9.87988281 72.85888672 C9.89297782 62.29776163 9.13674291 54.05194937 3 45 C2.34 44.34 1.68 43.68 1 43 C-6.68672537 53.06357459 -6.95187978 61.42708288 -6.75 73.625 C-6.73122751 76.09189814 -6.72248148 78.55803454 -6.73028564 81.0249939 C-6.73296179 82.54754058 -6.719244 84.07022606 -6.68719482 85.59243774 C-6.67871094 87.65869141 -6.67871094 87.65869141 -7 91 C-10 93 -10 93 -11.86387634 92.82356262 C-16.79293937 90.92320818 -20.6415573 88.06815635 -24 84 C-25.40236439 79.26137496 -25.28819094 74.74448282 -25.15234375 69.83203125 C-25.14637127 68.46539907 -25.14412179 67.09874607 -25.145401 65.73210144 C-25.13761701 62.88070412 -25.09651061 60.03248287 -25.02905273 57.18188477 C-24.94384802 53.53624532 -24.92498904 49.89406693 -24.92877865 46.2475481 C-24.92741662 43.43075284 -24.89996157 40.61470758 -24.86377144 37.79816246 C-24.84024545 35.80358845 -24.83148578 33.80885784 -24.82298279 31.81416321 C-24.55974391 21.7870265 -24.55974391 21.7870265 -21.55297852 18.75268555 C-20.71049561 18.17429932 -19.8680127 17.59591309 -19 17 C-18.443125 16.401875 -17.88625 15.80375 -17.3125 15.1875 C-16 14 -16 14 -14 14 C-13.67 13.01 -13.34 12.02 -13 11 C-11.01399663 9.6459068 -9.01182457 8.31542376 -7 7 C-5.29503463 5.37253306 -3.62102968 3.71108689 -2 2 C-1.34 1.34 -0.68 0.68 0 0 Z " fill="#000000" transform="translate(239,103)"/>
<path d="M0 0 C1.32 0.66 2.64 1.32 4 2 C3.99363525 3.20946289 3.98727051 4.41892578 3.98071289 5.66503906 C3.96614785 10.20556988 3.99787935 14.74485603 4.04272461 19.28515625 C4.05576461 21.240191 4.05669104 23.1953493 4.04467773 25.15039062 C3.97793031 37.58448168 4.51485268 45.73033397 12 56 C12 56.66 12 57.32 12 58 C12.66 58 13.32 58 14 58 C14.226875 57.360625 14.45375 56.72125 14.6875 56.0625 C16 53 16 53 17.20077515 51.08360291 C20.84247583 45.25579829 21.70633834 40.80354224 21.6015625 34.00390625 C21.60956879 33.08915024 21.61757507 32.17439423 21.62582397 31.23191833 C21.64871714 28.34164835 21.63947928 25.45280543 21.625 22.5625 C21.62115527 19.64747225 21.62451507 16.7330578 21.64559937 13.81809998 C21.65771867 12.0118735 21.65497003 10.20547366 21.63589478 8.39930725 C21.64697266 5.93969727 21.64697266 5.93969727 22 2 C22.99 1.34 23.98 0.68 25 0 C26.22995949 0.9156026 27.45892386 1.83254203 28.6875 2.75 C29.71423828 3.51570313 29.71423828 3.51570313 30.76171875 4.296875 C31.50035156 4.85890625 32.23898437 5.4209375 33 6 C33.85716614 6.56910095 34.71433228 7.1382019 35.59747314 7.72454834 C38 10 38 10 38.64837646 12.81890869 C38.65838684 13.90508484 38.66839722 14.99126099 38.67871094 16.11035156 C38.71203522 17.96312714 38.71203522 17.96312714 38.74603271 19.85333252 C38.7437189 21.1991003 38.73979264 22.54486613 38.734375 23.890625 C38.74282951 25.2782262 38.75247118 26.66582063 38.76324463 28.05340576 C38.77963315 30.96212708 38.77693276 33.87008746 38.76171875 36.77880859 C38.74448372 40.48951107 38.78147379 44.19736962 38.83398056 47.90765762 C38.86722964 50.77503505 38.8676341 53.64174091 38.85883331 56.50926971 C38.85919114 57.87591953 38.87035575 59.24261416 38.89293671 60.60907745 C39.06449146 72.58512958 39.06449146 72.58512958 34.61035156 77.73339844 C33.43399302 78.8514796 32.2325369 79.94416967 31 81 C30.13375 81.886875 29.2675 82.77375 28.375 83.6875 C27.59125 84.450625 26.8075 85.21375 26 86 C25.21625 86.804375 24.4325 87.60875 23.625 88.4375 C20.54059275 91.44846899 17.30132927 94.2314501 14 97 C10.90296672 95.63107063 8.88238392 94.07882641 6.5625 91.625 C3.85732144 88.83330187 1.05371976 86.41083139 -2 84 C-3.70884005 82.37660195 -5.37446717 80.70680947 -7 79 C-7.8664917 78.25218262 -8.7329834 77.50436523 -9.62573242 76.73388672 C-13.76511369 71.68598255 -12.6088237 64.80031443 -12.48828125 58.6328125 C-12.47894568 57.22892521 -12.47183308 55.82502153 -12.46684265 54.42111206 C-12.44783058 50.7414789 -12.39878266 47.06284618 -12.34332275 43.38360596 C-12.29200335 39.62306245 -12.26930174 35.8623559 -12.24414062 32.1015625 C-12.1906558 24.73392089 -12.10541641 17.36710108 -12 10 C-11.01 9.67 -10.02 9.34 -9 9 C-9 8.34 -9 7.68 -9 7 C-7.02053408 5.63636792 -5.0180755 4.30581356 -3 3 C-1.20605554 1.37648891 -1.20605554 1.37648891 0 0 Z " fill="#000000" transform="translate(227,279)"/>
<path d="M0 0 C4.75085867 3.96372525 9.23613112 8.09794782 13.58984375 12.4921875 C14.47392662 13.37839279 14.47392662 13.37839279 15.37586975 14.28250122 C17.23213727 16.14430404 19.08487085 18.00957745 20.9375 19.875 C22.20614672 21.14867011 23.4750249 22.42210971 24.74414062 23.6953125 C27.83210554 26.79422043 30.91690929 29.89624301 34 33 C30.03627475 37.75085867 25.90205218 42.23613112 21.5078125 46.58984375 C20.91700897 47.17923233 20.32620544 47.76862091 19.71749878 48.37586975 C17.85569596 50.23213727 15.99042255 52.08487085 14.125 53.9375 C12.85132989 55.20614672 11.57789029 56.4750249 10.3046875 57.74414062 C7.20577957 60.83210554 4.10375699 63.91690929 1 67 C-2.89043633 65.42204085 -5.47695368 62.76445619 -8.3515625 59.80859375 C-9.10172134 59.05063255 -9.10172134 59.05063255 -9.86703491 58.27735901 C-11.45786943 56.66876916 -13.04183084 55.05363181 -14.625 53.4375 C-16.21617776 51.81869762 -17.80879701 50.20138179 -19.40438843 48.58692932 C-20.39547098 47.58359573 -21.38386808 46.57760092 -22.36929321 45.56871033 C-24.92858681 42.94828535 -24.92858681 42.94828535 -28 41 C-28 40.34 -28 39.68 -28 39 C-28.66 39 -29.32 39 -30 39 C-31.38232443 37.37373596 -32.71937515 35.7074998 -34 34 C-30.84554667 30.12452876 -27.68847454 26.38940904 -24 23 C-23.34 23 -22.68 23 -22 23 C-22 22.34 -22 21.68 -22 21 C-21.34 21 -20.68 21 -20 21 C-20 20.34 -20 19.68 -20 19 C-17.36383547 16.12418415 -14.55980329 13.61609207 -11.5625 11.125 C-8.42368624 8.48647752 -5.83113806 5.6068645 -3.26171875 2.41796875 C-2 1 -2 1 0 0 Z " fill="#000000" transform="translate(240,204)"/>
</svg>
